<svg xmlns="http://www.w3.org/2000/svg" viewBox="0 0 512 512"><path fill="#b27658" d="m58.5 117 .5 274.5h-1zm167 11 .5 75.5h-1zm120 28-2 3zm-217 4 4 5zm212 0-4 5zm31 0-1 2-2 1 1-2zm-39 8-5 6zm-219 2 2 3zm26 1 3 4zm-20 4 9 10zm230 0-8 9zm-24 1-2 3zm-195 11 2 3zm11 23q3.3-1.1 2.5 1.5l-1.5-.5zm61 3-7 8zm66 2 4 5zm-44 6 1.5.5V288l-3-.5 2-.5v-64.5zm-118 1 1.5.5v64h-1v-63zm148 4 2 3zm-86 14 .5 5.5h-1zm193 1 .5 32.5h-1zm-61 4 .5 21.5h-1zm-149 6 .5 6.5h-1zm49 0 .5 7.5h-1zm-32 15 .5 4.5h-1zm-23 7-6 7zm63 4 4 5zm52 0-3 4zm101 1 .5 8.5h-1zm-236 4 .5 3.5h-1zm76 12 2 3zm123.5 3 3 1.5h-3zm-248.5 7 16.5.5-16.5.5zm274 0 6.5.5-6.5.5zm8 0 8.5.5-8.5.5zm-133 2 .5 76-19-.5 18-.5zm-98 20-6 7zm215 0 6 7zm-17 7 2 3zm-208 2-2 3zm22 3-8 9zm194 4 2 3zm8 7 2 3zm-265 32 14.5.5-14.5.5zm36 0 3.5.5-3.5.5zm8 0 76.5.5-76.5.5zm123 0 62.5.5-62.5.5zm64 0 85.5.5-85.5.5zm-247 14 2 3z"/><path fill="#f5f6f2" d="M0 0h512v512H0zm64 111-2 1-4 6v274l2 4 5 3h340l2-1 3-3V128l1-1-1-11-4-5z" opacity=".663"/><path fill="#e2753d" d="M76 128h149v76q-19.9 2.8-30 16.5-7.7 8.3-11 21l-1 5v16q4.6 22.9 20.5 34.5 8.6 7.2 21.5 9v74.5l-.5.5h-17l-5 1h-2l-4-1h-76l-2 1-3-1-4 1h-20l-1-1H76v-8h2.5q19.2-3.8 34-12 15.6-9.4 27.5-22.5l13.5-18.5 1.5 3 2.5 1 1.5-.5q-.7 2.3 1.5 1.5h2l1.5.5-3 1 5.5 2.5 3.5-2q1.1-2.7-1.5-2l-1-2 3.5 1-1.5 4-1.5.5 4 .5q-1.1 2.7 1.5 2l4.5-2.5q-4.3-2.2-2.5-4.5-2.6.7-1.5-2h-3v-1.5l1-2-1-2h1l.5 1.5q2.5-1.2 1.5-5l5 2-4.5-9-1.5.5 1-2v-2l-1-3 2.5-5.5q1.3 2.3 2.5-.5l-1-3 .5-1.5-4-2-2 1h-2q-2.6-.7-1.5 2h-2v2.5q-3.6 13.9-10.5 24.5l.5-1.5q8.3-16.2 12-37-1.7-6.2 1-8v-30l-4-23q-4.5-16-12-29-10-16.5-24.5-28.5l-25-16q-12.2-6-27.5-8zm1 1 1 6q2-1 0-2l2-3v4l-1 2q12 1 21 6 2 1 1-2h3l3-4 4 2-1-1 3-1-1-3q3-1 2 2l3-1 3 1h2l1-3v3l2-1-2-3 5 3v-2h2q1-3 6-2zm95 0v1h5zm15 0q-1 2 3 2h-1l1 3-1 2q-1 2-2 0-3-1-2 2l3 2h-4v-2l-1 3 5 3 3-2 2 1h2q4-2 3 2l7 3 1-1 4 4q4 1 2-3l5-1 2-4v2l5-1v-15zm4 15q-2 5 1 6h1l-1-2zm-23 1-1 2q1 2 3 0 3-1 1 3l3-1-3-3zm12 1-2 3 4 1-1-1 1-2zm-3 2-1 3 2 1zm6 3 3 7 2-4zm-25 5v2l-1-1-4 2v2q-2 6 2 6l-1 2 2 2v-2l3 2-1-1-4 6 4 3v-4h2q-1-3 2-2l2 1-2 4h3l1 3 1-3v4l2 2q2-1 1 2l4-2q2-1 1 2l-3 1q1 2 3 0 2 1 1-3h2v-3l-1 2h-1l1-4h3l-1-2 1-2q-3 1-2-2v-2q2-1 1 3l2 1-1-3 3 1 2-1 1 2v-3l5-2 1 3 1-2-3-5 1-2q-1-3-2-1l-2-1v-1l-1-1h-2v-3l-3 6v2h3l-3 4q-4-1-3 2l-1-1-1 3h-3l1-2h-1v-1l-4-7h-4l3-1-2-1v-2l-3 2h-2v-4zm38 6q-2 3-3 1l-2 1 1 3h1q-1-3 2-2h2zm-1 7 2 2q1-3-2-2m4 0v4-1q2-2 0-3m-48 8v3l2-1zm66 1q-4 2 0 4-1 2 2 1l-1 3 1 7 4-2v4l-2 1h2l1 4v-18l-2 3q-3 1-2-2-4-2-1-3zm-63 1-2 3 3-2zm67 1-1 2 2 1zm-55 4 2 3q2 1 1-1zm0 2-1 2-5 2-2 4h2q1 3-2 2l2 6 3-1 2 3 2-4 2 1 1-3 3-2q1-3-2-4l-2-3h-1zm53 7v4h1zm-37 59-1 10h1zm42 59-1 2-3 1-2-1-1 2 2 1h-2l-2 5 1 4-2 1 3 3v-3q2-1 1 2h3l-2-1 2-4 3 2zm-14 14v2l4 1-1-1q1-4-3-2m-29 10-1 2 3 1zm27 0v4q1 3-1 4l-3-1q-5 2-2 4v2l-1-3-1 2-1 2q6 1 10-1l2-1q1 2-2 1-1 3 2 2h1l-1 2 2-1q-1-4 2-3v-2q2 1 1-1h-2l2-3-2-1-1-3q-3 1-2-2zm-19 11 1 3h-4l2 3h-3l-2 4h2l1 2 1-3q2 1 0 3l3 1v-1h1l-1 3 2-1-1 2 1 1 5-1h4v-3q4 1 7-2l2 3v-2h2l-2-1v-1l-2-7-1 2-3 2 3 1h-2l-2 1q1-3-3-2l-1 3-4-1 1-2-2-1-4 3q-3 1-2-1h2l2-5zm-56 1-15 12v2q3-1 2 2h4l-1 2q-1 2 2 1v3l4 2h1v4h2l-1 2q1 2 6 2l-2 1h34l-5-1h-2l1-2 2 1q1-3-2-2l-5-2 1-3-2-2q-4 1-3-1h-2l3-5-3 1-1-2-4-3-3-1q-3 1-2-1h-1l-1-4-4-1zm64 1-2 2 3 1zm27 13-1 4q-3 1-2-1l-3 2 1 2h-2q1 3-2 2l1 4-1 3 3 1-3 1 1 1h8zM78 374l-1 6h2zm165-246h149.5l.5.5v7.5q-19 2.6-33.5 11-19 10.5-32.5 26.5-14.7 16.8-22 41l-4 19-1 33 1 1v9l1 1 1 11 6 18q9.6 22.9 26.5 38.5 14.5 14.5 35.5 22.5l-1.5.5-7-3-5.5 4.5-.5 1.5-1.5-.5-1 3.5-6 .5v2l1 2-.5 1.5 31.5-.5-.5-1.5 1.5.5V376q2.7 1.1 2-1.5l-.5-1.5 1.5-.5-9-3 2.5-.5 4 2 11.5 2v7.5l-.5.5h-87l-54.5-.5 10-1-4-.5v-2q-2.7 1.1-2-1.5l-.5-2.5-1.5-.5q3.5-1.5 1-3 .8-2.2-1.5-1.5-1.2 2.3-2.5-.5l.5-1.5-6-2-.5 16 6 .5-7 .5v-74.5l2.5-.5q19.7-5.3 30.5-19.5l9-18q2.8-8.7 1-22-4.2-20.3-17.5-31.5-8.8-8.7-23.5-11.5l4.5-1.5v2l6.5 2-2-7.5h2q-.7-2.2 1.5-1.5 2.8-1.2.5-2.5-.8-2.6 2.5-1.5l2.5-3.5-3-2h2l1.5-3.5q2.6.7 1.5-2-3.7 1.5-3-1.5l.5-2.5 1 3q2.3.8 1.5-1.5l1.5.5 3 1 2-1 1.5.5.5-2.5.5 3.5-1.5 2.5 2.5.5-1 2 1.5 3.5 1-4 1 5 .5-5 4-2 .5 3 1.5-.5-1 3h1l2-3h1l-1 2 2.5 3.5 1.5.5-2 1 1 2.5 4-1 1 2.5-1 2.5q3.8-1.5 3 1.5l1 6.5q2.7-1.1 2 1.5l1 2.5 5 1 7-18.5-1-3.5q-2.7 1.1-2-1.5l-2.5-3.5q-2.2.8-1.5-1.5l-2.5-3.5 2 1-1-2-2-1-.5 2q-3 1.3-2-2.5l-1.5.5-3.5-1.5 2-3-1.5-2.5-2 4-1.5-.5 1.5-2.5-6 3q1.6-1.7-1.5-3.5l-2-3 2.5-.5q5.9 1.7 4.5-2-2.7 1.1-2-1.5l-3-1 1-3h-1l-.5 1.5-.5-3-4.5 3 1.5-2.5-.5-1.5-1.5.5 1-2.5h-2q1.5-3.7-1.5-3l.5-1.5V151q-3.7 1.5-3-1.5h-1l.5 3.5 1.5-.5-1.5 2.5-4 1-.5-2h-2q1.5 3.8-1.5 3l-3.5 5.5 3 4.5-5 1-.5 4q-1.3-2.2-2.5.5l2 1q-1.4 2.6-6 2l2 .5 1 2.5-1.5-.5-1.5.5q1.8 4.2 3.5 1.5l1.5.5-2.5 1.5-3-2 .5 1.5-.5 1.5-2.5-.5q.8-2.6-2.5-1.5l-1.5.5-1.5-4.5-1 26zm2 1v11l1-3v2l4 2 1-2-1-1v-1l-1-3h-3l1-4h3l-4-1v2zm30 0v1l14 1h-1l-3 1 1 2q-1 3 3 1v2l4 2-1 2 3 1 1-2h-1l-1-2 4-2h3l-1 2 2 5-2 6h3l1-3 3 1 1 2v-3l-4-2q-1-3 2-2l2 3 2-1 2 4-3-1 1 3 4 3h-1v1l3-1v4q-1 2 2 1l1-3 3 5h-2l1 4v2l3 2 1-2 6 3 11-10-3-6h-1l-1-1-2-2h-2l-1 2-2-2-1 1v-1l-3-8 4-2-1-2-2 1-3-1q-6 2-5-1h-3l2-1-2-5-2 1q-5 1-4-2h14zm61 0v1h9l2 3q2-1 1 2l2-1 5 1q1 3 3 1l5 3 3 1q2-1 1 2l7-2-4-6 1-1-3-2 3-1zm-85 5v4q3 1 2-2zm20 11-2 2q-1 3 4 1l-1-1q1-3-1-2m-5 37v2l3 1q2-4-3-3m23 41 1 3-1-1q-3 1-1 3h-1l-4 7 2-1-1 2 3 10v7l3 1 4-1v2q3 1 2-1h1l-1 2 3 1v-14l1-1v-9l-1 3-2-3-4-2 1-2-1-4zm-1 49-1 7 1 2q2-1 1 3h1q-1-4 2-3l-1-1q1-3-1-2l-1-2 4 2v-2l-1-1-1-3-2 3zm15 34-2 2 1 3-1-1-1 3v2h-1q-4 2 1 4l4-2-1 2 3 2-1-2 7 1 2-1-5-12-3 1zm-59 1v23h2l-1-1 10-5 1 1q1-3-2-2-2-6 2-7l-1-4-2 1-2-4zm51 7-3 3h3zm0 4-1 3h2l1-2zm22 5-2 4-1-2-2 3q-3-1-2 2h-2v2l-1-1-2 3 3 4q2-1 1 2l-3-2-4 3 2 4 2-1 4 1v-3l-1 2-1-1h-2l5-3 4 1q1-4 3-1h2l-1-1v-1q5 2 3-3h3zm-43 3-1 2-2 1 1 2-5-2h-2l-4 1q-2-4-4 0l-2-2-1 2h-2l2 3q-1 2 2 1l1 3v-2l7-2 3 4q2-1 0-2l1-2v2h3l6-3-2-1 2-1-1-1 2-1zm25 2-1 1q-3-1-2 3v1l6-4zm-54 3-1 10h1zm33 2-2 3 2-1-2 3q1 2 3 0l-1 2 1 2-2 1-1-2-1 2q-1 2-2 0l-2 3-4-1-5 3-1 3q-1 2 2 1l-1 2q-1 2 3 1l1 4q3 1 2-1h1l-1 3 3 4 2-1-1 2 1 1 3-2v-1q-3 1-2-2l3 1 1-3 1 2 2-4q2-1 1 2l2-1 2 1v-3l4 1-1-2 1-3v3l2-1-2-5 3 1 2-1q4-1 6 1l2-1-5-2 1-4 3-1-1-2q1-4-1-3v2l-2-2-3 2-1-3-3 5q1 3-3 1l-1-2q1-3 3-1 3-1 2-5h-3l1 2-2-2-1 3q-3 1-2-1h-1l-2-1-1 2zm-20 12-3 1 2 3h3zm49 7q-1 4 2 3 1-4-2-3m5 5-2 3q-2-2-3 1l-3-1 1 3-2-2-4 2v2l-3-4h-1q-4 1-3-1h-1q-4-1-3 2l3 1v1l-1-1h-1l2 5h-2l1 2q-2 4 3 3l1 3v-2l4 1v-3l3-1v3q-1 2 2 1l1-3v2q3 1 2-2h3l1-2-2 1-6-1 2-4 7 1 1-7 2-2zm-30 3-1 2 2 1zm-6 7q0 3-3 2v3q-2 1 1 2v-2l3-2zm5 0-1 4h2zm8 2q-2 3-3 1l-3 1 1 3 1-2 2 1-1 2h2l1-4z"/><path fill="#e2753d" d="m293.5 130 10.5.5-7 3.5-1.5-3q-1.8 2.5-2-1m99 23 .5 52h-49.5l-12 3-6 3 .5-1.5q8.4-23.1 26.5-36.5 16-14 40-20m-3.5 2-6 2v2l-2-1-1 3v3l3 4 3 1v-2q3-1 1 4 1 2 3 0 2-1 1 4h1v-18l-1 2zm-33 17-11 10 4 2q6 2 8-2l1 3q1-2 7-1l1-3-1 2 2 1q1-5-1-4l-2-4-3 1q-3 1-2-2zm23 26-2 4q-8-1-12 2h20l-1-1 1-2-1-1-2 1 1-3-4 2zM76 154q35.1 7.6 54 32.5 9.3 9.7 13 23.5l-16.5-5H76zm1 1 1 18v-2l2-1-1 3 3-2q-1-3 2-2v-2l4-1-1-1 2-7zm38 18-1 2-3-1-2 4-1-2-2 1-2 4-4 3q1 2-2 1v3l-4 3 2 1q-1 2-2 0l-1 3 2-1 1 1h-3l-3 1 1 3-1 2q-3-1-2 2v1h18l-6-1 5-3q3 1 2-1h2v-2l3 1v-2l3 1 12-3 4 3-1 3v1q2-1 1 2h1q-1-3 2-2l-1-4 3 1v-1q-1-3-2-1l-1-1q2-2 0-3l-1 3-2-1v-1l-1-2 2-1-2-3zm14 31v1h3zm36.5-37q3 1.5 0 3l-2.5-.5zm113 9 .5 1.5-2 1zm-21 7q1.8 3.1 3.5 1.5.8 2.3-1.5 1.5l-2.5-1zm-178 39h26l1.5 1.5V287H76l.5-64 1 20 1-3 2.5 1.5q-.7-2.2 1.5-1.5l1-2-1.5-.5 6-11-2.5-3.5q-5.5-1.5-7 1zM96 236l-1 2 1 1q-3-1-2 2v2l-1 2v-1l-2-1q1 4-2 6l1 2-1-1-2 4h5v2q2-1 1 2h5q2-1 1 2h2v2l3 1h-2v2q-1 2 2 1v2h2v-26l-1 3q-3-1-1-2l-1-1-2 1q1-3-2-2v-2zm-8 9 1 1 1 1q1-3-2-2m-3 21-3 4-3 2 1-2-2-2-1 18h7l-3-1q-1-3 2-2l-1-2h2q2-1 0-2-1-3 2-2l-1-2 1-3zm137.5-44 2.5.5V287q-12-2.2-18-11.5l-6-14v-14q2.9-13.6 12.5-20.5zm1.5 17-1 7-1 1-2-2 1-2-3-3v2l-1 3h2l-2 5-1 3-4-1 2-4-2-1q-4 1-2-3-4-1-3 2l-3-2-2 5v12l2 3 3 1 4-1q-1-4 2-5v2q2-2 4 1 3 1 2-2h3l-1 2 1 1 2-1zm19-17 7.5 2 10.5 8.5q7.6 8.4 8 24-2.5 1.5-1 7l-4 9-8.5 9.5q-4.9 4.5-12.5 5zm20 22-3 3v-2l-3 1q-3-1-2 2h2q-4 2-4 8-4 1-1 3l-1 2q1 2 3 0l2 1q1-3-1-2v-1q2 1 1-1l3-1 1 1-1 2 2-1 6 4v-7l1-1-2-10h-1zm-18 18v21l1-6v-2l3-2-2-1q-2-4 2-3l4-5-2-2v2l-1-1-4 2zm117.5-40h29l1.5 1.5V287h-31v-8.5l-1-1v-2l1-2v-32l-1-1v-17zm24.5 1-2 3 1 2-1-1-1 2 2 2q-4 1-1 3l-1 2 1 4-3 2v2l-1 3-1 1-3-3-2 1 7 13-1-1-2 1v2l-1 3 1 1q-3-1-2 2h-2q1-3-1-2l-2 1 1-3h-2l3-1 1-2q1-4-2-3l-2-6-2 1v-1l-1-3-2 1 1 2-2 1-2 1v12l3-2 2 2 1-2 1 3-3 1 1 2v1l3-2q1 3 3-1l-1 2 2 2v-1h1q1 3-2 2l1 3q-1 2-2 0-6-2-4 4l-4 2-1-1-1 6h13l-4-1 4-2-3-1 2-3 2 1 8-3-1-3h1q-1 2 2 1l1-2h2q2-1 1 2h1v-50l-1 2-1-2-1 2zm-260.5 0 6.5 2.5-1.5.5-5-2 .5 1.5-1 2v14l1 3-.5 1.5 4-2h2q2.3.8 1.5-1.5l2-3-1-3 3-2-.5-1.5q2.6.8 1.5-2.5l-5-4 1.5.5 9.5 7.5 6 13v14q-3.3 12.2-12.5 18.5l-12 6-1.5-8q3-1.2 2 2.5l4.5 2.5 11.5-8.5-1-6.5-2-.5 1.5-2.5-5 1 .5-1.5-.5-2.5-3 2-1.5-3-4 1.5-.5 1.5-1.5-.5-.5 6.5-.5-45.5zm.5 35-1 4h2zm214.5-35 2.5.5V286q-12.1-2.6-19-11.5-8.3-8.2-7-26 2.6-12.9 11.5-19.5l5-3-1 2-5.5 3.5 3 1-1 4v2l3 3q-.8 2.6 2.5 1.5l3-1 3-2 1.5.5v-16l-1.5-.5-3 1v-1zM323 248l-4 1 1 9 3-2q2 1 1-1-4-2-1-3z"/><path fill="#e2753d" d="M257 249q2.7-1.1 2 1.5l-2.5 1.5.5-1.5zm123.5 15 .5 1.5v2l-2.5 2.5-.5-2.5zm-134 2 1 2-1.5-.5-.5 1.5-.5-1.5zm-121 7 1.5 2.5-2-1zm17 25 .5 1.5q-7.7 22.3-24.5 35.5-11.5 9.5-26 16L76 355l.5-50 1 12 2-3 2.5.5-.5 1.5 5 2 1.5-.5-1 3h2l-.5 1.5 5 3v-2l3.5-.5-4.5-2.5-1.5.5-1-5.5 4-1.5 1-2v-2l-2.5-3.5-5.5-.5 6.5-1.5h34q9-1.5 15-6m-6.5 4-4 2 3 1 1 2 1-2 2 1 1-3zm-32 14-4 3v2l-1 3 2 4q-1 2 2 1v-3q-3 1-2-2h3q-2 4 2 3l-1-3 1-2zm-7 3 1 2h1zm12 2-1 2 3 1h1zm-6 10-1 1q-6-1-4 3 3 1 2-2h5zm1 3-3 4h3q-1 3 2 2l-1-2 1-2zm2 6v2l3-1zm220.5-42 8 4 15.5 2.5-8 1 3 2v2q.8 2.3-1.5 1.5l-5.5 1q1.3 3-2.5 2l.5 1.5 1 2-3-2-7-13zm15.5 9q-3 4 2 3zm25.5-3h24l1.5 1.5v49l-3.5.5q-31.4-9.1-49.5-31.5l-3-4 4 3 5.5 6.5 2-4 3 2v-4q4.4 1.5 3.5-1.5l2.5-5.5 1 3 1.5-2.5-1-2h1l.5 1.5 1-4 2.5 1-1-3.5h2l-1-2 2-1-4-1zm-6.5 15-1 4 3-2 1 1q2 1 1-2zm-5 4 1 2h1zm36 6-1 3h-2l-1-2-3 2-2 3 3-1-3 4-2 1v2l-5 3h2l-3 5 15 5 1-2v2h1z"/><path fill="#e2753d" d="m78.5 305 7.5.5-7.5.5zm139 16 .5 3.5h-1zm96 12v2l1.5.5-.5 2.5-2-3-1.5.5zm-40 20 2.5 3.5-1 2.5-5-1-1-3.5 2.5-.5zm-2 6q2.8 1.3.5 2.5l-.5 1.5-1.5-2.5zm31 4-.5 1.5-2.5 5.5.5-1.5zm-148 7 1.5 2.5h-1z"/><path fill="#e07139" d="m77 129 59 .5q-5.1-.5-6.5 2.5l-1.5-.5-.5 2.5-3.5-2.5 1 2-2 1-.5-2.5-1 3h-2l-3-1-2.5 1q1-3-2-2l1 2.5-4.5 3.5v-2l-2-1-3 4H101q1.1 2.7-1.5 2-8.5-5.2-20.5-6l-.5-2-1.5.5zm94.5 0 5.5.5-5.5.5zm15 0H224v15l-5 1-.5-2-1.5 4-5 1v3q-3.7-1.5-3 1.5h-1l1-2-2-1-.5 1.5-.5-1.5q2.3-1.2-.5-2.5l-2 1-5.5-3.5q.9-3-3.5-1.5l-3.5 3.5 1 1 3 4-1 1 3 3-1 1-.5 1.5-.5-1.5q2.3-1.2-.5-2.5l-1 2-.5-1.5 1-3-1.5-1.5-3.5 1 1.5-7q1.3 2.3 2.5-.5l-2.5-1.5-2.5 1.5 1 2-1 2.5q-2.7 1.1-2-1.5h-2l-.5-1.5-2.5 3.5 7 5-3 5 2 1-.5 1.5 2 1q1.5-2.5 3 1l2 1q3.7-2 2-4l2.5 1.5-2 1 1 2-2.5.5q-2.2-.7-1.5 1.5h-1l-1.5-3.5-.5 1.5 3 5-1.5 2.5-3-2 .5 1.5-.5 1.5-.5-2q-3-1.2-2 2.5h-1l-.5-1.5-2 1-1.5-.5-2 5 .5 1.5q-3.3-1.1-2.5 1.5l1 3.5h-2q1.5 3.8-1.5 3-1.5 2.5-3-1l-3-2 .5 1.5 1 2-1 2.5q2.7-1.1 2 1.5h2v2q1.1 3.3-1.5 2.5l-3 5-2-1-2 4-2-3-2.5 1-2-6q3 1 2-2l-2.5 1-3.5-5.5 2 1 1.5 3.5 2.5-4 5-2 1-4 2-.5-1-2v-2l-.5-1.5-1 3-.5-3-3-.5.5-1.5q-2.2.8-1.5-1.5l.5-1.5q-2.6-.7-1.5 2h-2v3.5l-4-1v-2l2-4-2-3 .5-1.5q-3 .5-1.5-6.5l-.5-1.5 4-2 1.5.5q-.8-3 3-1.5v4h1.5l3-2 .5 2 3 1.5 6.5 10.5 1-3 1.5.5q-.8-2.6 2.5-1.5l2.5-4-2.5 1 1.5-2.5-1-1 1-4v-2l1-4-5-3 1.5-2.5q1.8 2.7 3.5-1.5l1-3-1-3h1q-.9 3 3.5 1.5l-1-2q-2.6.7-1.5-2l2.5 1 2.5-3.5-1.5-2.5 1.5-.5q-4.4.4-3.5-1.5m-2.5 13v3l3-1zm-18 25q-3 2 0 3 3-1 0-3m-9 1v3q3-1 0-3m21 3v2q-1 3 2 2l-1-1q1-4-1-3m-14 2-2 2 2 1zm3 13-1 2q2 3 3 0zm77.5-57 1 2 .5-2 4 .5-3 .5-1 3.5 2.5.5h2l2.5 1.5q1.1 3.3-1.5 2.5l-2 3-3.5-2.5-.5-1.5-1 3zm5.5 5-1 2v2h2zm24.5-5 49.5.5-14 .5q-1.3 3.3 3.5 2l2.5-1 .5 2 1-2 .5 1.5-1 2 2 3.5 5.5 1h2l2-1 1 2-3.5 1.5 1 5 4.5 5.5 1-2h2l2.5 1.5.5 1.5 1.5-.5 3 6-12.5 11.5v-2l-5-2-1 2-2.5-2.5v-2l-1-3.5 2-.5-3.5-4.5-.5 3q-2.7 1.1-2-1.5v-2l-.5-1.5-3 1v-1l1.5-.5-4-2.5-1-3.5 3 1-2.5-3.5-2 1-1.5-3q-2.7-1.1-2 1.5l4 2.5 1 3.5-2-1q.8-2.2-1.5-1.5l-2-1-1 3-2.5-.5 2-6-2-5 .5-1.5h-3l-3.5 2 .5 2 1.5-.5-1.5 2.5-3.5-2.5h2l-1.5-2.5-3 1q-2.2-.7-1.5 1.5l-2-1 4-1.5v-2q-3.8 1.5-3-1.5l-1-2 2.5-.5 1.5-.5-14.5-.5zm19.5 1 1 2q1-2 2 1-1 2 2 1l-1-1q1-3 3-1l3-1zm41.5-1 35.5.5-3 1 3 2-1 1 3.5 6.5-7 3 .5-1.5q.8-2.2-1.5-1.5l-3-1-5-3q-1.5 2.5-3-1l-5-1-1.5.5q.8-2.2-1.5-1.5l-1.5-3h-9.5z"/><path fill="#e07139" d="m168.5 144 3 2 1.5-.5q-2.5 1.5 1 3l-1.5 1.5H171q1.5-3.7-1.5-3v2l-2.5-3.5zm102 1q2.3-.7 1.5 1.5l.5 1.5q-4.4 1.5-3.5-1.5zm9 0-2 3-1-2q1.5 2.5 3-1m-104 1 2.5 5.5h-2l-.5 1.5-.5-1.5 1-3zm98 3 .5 2q3.8-1.5 3 1.5l-.5 1.5h1.5v3q2.7-1.1 2 1.5l1.5 2.5 3-2-.5 1.5.5 2.5 1-2 .5 2.5q-2.2 1.3.5 2.5l1.5-.5q-.7 2.6 2 1.5v2l-5.5 1-1.5-.5 2 3 3.5 2.5 4-2-1 3 2.5-1.5.5-2.5 1.5 3.5q-3.7 1.8-.5 3.5l3-1 .5 3q2.7 1.1 2-1.5l1.5.5 2.5 1.5-2 1 2 3.5 3 1.5 1 3.5q3-1.2 2 2.5h2q-5.8 8.4-8 19.5l-5-1-1-4q-4 1.4-2-5.5l-1-2.5q-3.7 1.5-3-1.5v-2q.8-2.2-1.5-1.5l-2.5 1-.5-2-4 3 1-2 1.5-.5-3-1 2.5-.5h2l1.5-.5-3-2-1.5-2.5q-2.2-.7-1.5 1.5h-1l-.5-2.5-2.5 1.5q2.8-1.1 2-4.5l-4 2v4.5h-1l-.5-4.5-1 4-1.5-4.5.5-1.5-2.5-.5q2.8-.7 2-5h-1l-.5 2.5-2-1h-2l-3-1-.5 1.5 4 1.5q1.5 3.8-1.5 3l-3-1-1.5.5 2 4h-1l-1.5-3.5-1.5 3.5 3 2h-2l-1.5 2.5q-3.3-1.1-2.5 1.5 2.3 1.3-.5 2.5-2.2-.7-1.5 1.5l-1 5 1 2.5-7.5-3H244l.5-26 2 5 3.5-1 .5 2 2.5-.5-1-2 2-1-.5-1.5q2.6.7 1.5-2l-2-.5q4.6.6 6-2l-2-1 .5-2.5 2.5 1.5q-1.5-4.4 1.5-3.5l3.5-1-3-4.5 1-2-.5-1.5 1.5.5 1.5-2.5h1.5v-3q2.7 1.1 2-1.5h1l-1 3 1.5-.5q3.8.8 4.5-1.5l-.5-1.5-1.5.5zm5.5 27-2 3 2-1zm-22 4-1 2 2-1zm6 0-1 2h3zM77 155l12 3-2 6.5.5 1.5-3.5 1v2q-2.7-1.1-2 1.5l-3 2-.5-2.5-1 3zm121.5 0 .5 2.5-2 1zm190 0 2 4 1-2 .5 17.5h-1q1.5-4.4-1.5-3.5-1.2 2.3-2.5-.5 1.5-4.4-1.5-3.5v2l-2.5-1.5-3-4v-3l.5-2.5zm-188 6-.5 1.5-.5 1.5-.5-1.5zm-6 8q3.8-1 2.5 2zm4 0q2.8 1.3.5 2.5l-.5 1.5z"/><path fill="#e07139" d="m291.5 169 .5 1.5-1.5 1.5-2.5-.5q-.7-2.2 1.5-1.5l1.5.5zm65 2 1.5.5-2 1 3 2q-1.1 3.3 1.5 2.5v-2l3.5 1 1.5 4q3-.9 1.5 3.5l-2.5.5q-5.5-1.5-7 1l-1-3-1 3q-1.5-2.5-7-1l-3-2-1.5.5zm-243 1 15.5 14.5 5 7-1 2 3 1 1 2-3 1-2 3h-1q.8-2.2-1.5-1.5l.5-1.5-1-3 .5-1.5-3-1-12 3-2.5-1-.5 2-2.5-1-.5 2-1.5-.5q.8 2.6-2.5 1.5l-4.5 2.5 6 1-18.5.5.5-1.5q-.7-2.2 1.5-1.5l1.5-2.5-1-2.5 3-1.5.5-2.5q1.3 2.2 2.5-.5l-2-1 2-1-1.5-2.5 3.5.5V185q2.7 1.1 2-1.5l4-3 1.5-3.5 2-1 1 2 2-4 3.5.5zm16.5 18v2l-1 2h2q2-1 0-2 1-3-1-2m64.5-18-.5 1.5-.5 1.5-.5-1.5zm-44 5 4.5 2.5-3 2zm65 0 3.5 2.5q-2.2 1.3.5 2.5l1-2 2 3 1.5-.5-1 2 1 1v14h-1q1.5-4.4-1.5-3.5v-1l1.5-.5v-2l-.5-1.5-3.5 2.5 1 3h-1l-1-3q2.2-1.3 1-6l-2-3h2l-2-3-2-2zm5.5 5q-3 4 1 3zm-38.5-4-2 3zm-30 5v3q-3-1.5 0-3m231 14-.5 1.5q-.7 2.3 1.5 1.5l1 2-1.5-.5 1 2-19.5.5v-1l11.5-1 1.5-4 .5 2h2q-1.1-2.7 1.5-2zm-255 7 3.5.5-3.5.5zm-51 19h2q6-1.5 7.5 1.5l1 2-6 11 2 1-3 1.5-.5 2-2.5-1.5-.5 2.5zm211 0 2 1 1.5-.5-.5 1.5q2.3-.7 1.5 1.5h2l-2 4.5 4 1.5 1.5 3.5 1-3 .5 8.5-1 1V257l-5-2-.5-2-4 1-2.5-1q.5-12.7-5-20.5h2l2.5-4.5 1.5-.5-1-1q3.1-1.7 1.5-3.5m98 0 2 4 1-2 1 2 1-2 .5 49.5h-1q.8-2.2-1.5-1.5l-1.5-.5-1.5 2.5-3 2-6.5 2.5.5 1.5-3-2-1.5 3 3 .5-4 2 4 1-13 .5.5-6 1 1 4.5-2.5q-1.7-5.2 3.5-3.5 1.2 2.3 2.5-.5l-1-2.5q3 1.3 2-2.5h-1l-.5 1.5-2-3h-2l-3 2 .5-1.5-1-2q2.7-1.8-1.5-3.5l-2.5 1.5v-12l1.5-.5 2.5-1-1-2.5 2-.5 1.5 3 2.5 1.5.5 1.5 2-1v1q-3-.8-1.5 3 3-1.2 2 2.5l-1 2.5-3 .5 2 .5v2l4 2q-1.1-2.7 1.5-2l-.5-1.5 1-3-.5-1.5 2.5-1.5-.5-1.5-1.5.5v-2q-.2-5.7-3.5-8.5l-1 2-.5-1.5 2.5-1.5 2 2 2.5-.5-1-3 4-3v-2l1-5h-2q5.5-2.5 1-5zM369 263l-1 2 2 1zm11 3-2 2 1 2q4-2 1-4m-253.5-42q8.4 1.1 12.5 6.5 1.1 3.3-1.5 2.5v2l-2.5 1.5 1 4-2 3.5-2.5 1-2-1-3 2 .5-1.5-1-3v-14l1-2zm215 0 1.5.5v16q-1.7-1.6-3.5 1.5l-2 1h-2q-3.3 1.1-2.5-1.5l-3-3v-2l1-4-3-1q4.9-5.6 13.5-7.5m-246 12 3.5 2.5v2.5q2.7-1.1 2 1.5l1.5-.5 1.5.5q-2.2 1.3.5 2.5l1-3 .5 26h-2v-2q-2.7 1.1-2-1.5l-.5-1.5 2.5-.5-3-.5v-2h-2q1.1-2.7-1.5-2h-2l-2.5.5 1 2h-1l-2-3h2q.8-2.2-1.5-1.5v-2q-4.5 1-5.5-1.5h2l.5-2.5 1.5.5-1-2q2.3-1.2-.5-2.5l-1.5-.5 3-.5.5 2 .5-4 2.5 1 .5-1.5v-2q-.7-2.2 1.5-1.5l-.5-1.5zm121 3 3 2 1-2 .5 1.5v2l-1 2 1.5 2.5 1.5-1.5.5-6.5.5 23-2.5 1-.5-1.5.5-1.5H219q1.3 3-2.5 2-1.7-3.1-3.5-1.5l-.5-1.5q-2.5 1.2-1.5 5l-4.5 1-2-1-1.5.5 1-2-2-2v-12l1.5-4.5 3.5 2q-1.1-3.3 3-2-1.5 3.8 1.5 3l2.5 1 1 3.5-.5 1.5 2.5-1.5v-2l2-4.5-2-.5 1-3zm46 5 2 1 1.5-.5 2 10-1 1v7.5l-2.5-1-2 1-2.5-1.5 2-1-3-1 1-2-1.5-.5-2.5.5q.8 2.3-1.5 1.5v1q2.6-.7 1.5 2l-2.5-1q-2.8 1.3-.5 2.5l-3 3-1.5 2.5q-3-.8-1.5 3l2 .5-3 2v2l-1.5 6.5-.5-20.5h1l.5 2.5 6.5-3.5v-2l-1-2 2-4-.5-1.5 1.5.5 2-4-1-2.5 4.5-1q1.5 2.5 3-1m-5.5 5v3l2-1q1-3-2-2m65.5-1 .5 3.5q-2.5 1.5 1 3 .8 2.3-1.5 1.5v2l-2-1-1.5.5v-8l2.5-.5zm-141 4 .5 9.5h-1zm-55 6 2 4 3.5-1 1.5 3 3-2 .5 2.5-.5 1.5 5-1-1 3q2.8-.6 1.5 5.5h2q-4.8 6.7-13.5 9.5l-3.5-2.5-1-4 1-2-1-1v-10h2q.7-2.6-2-1.5z"/><path fill="#e07139" d="M90.5 260q2.3-.7 1.5 1.5l-2 1zm-8 6 2.5.5q-.6 4.6 2 6h-2l1 4.5q-2.7-1.1-2 1.5 2.5 1.5-1 3 .7 2.6-2 1.5v2l3 .5-7 .5.5-18 4 2v-2l1.5.5zm206 5-.5 1.5.5 2.5 2-3 1 3 2-1-1 4q-2.2-.7-1.5 1.5l.5 1.5q-2.6-.8-1.5 2.5h-1q1.1-3.3-1.5-2.5l-.5-2.5q-1.5-6 1.5-7.5m-118 16 2 1 2-1 3.5 2.5-1 3q2.3 1.3-.5 2.5l-1.5-.5-2 6 1 2v2l5 10.5-2.5-1-1 2-.5-1.5.5-1.5q-3-.9-1.5 3.5l-3 5.5h3q-1.1 2.7 1.5 2l3.5 1.5-3 1 1.5 2.5-5.5 2q1.3-3.3-3.5-2l-3-1-4.5-1.5 3-1-2.5-1.5-2.5 1-.5-2-2.5 1.5.5-1.5q-2.2.8-1.5-1.5l-1-2q8.9-12.4 12-29.5h2q-1.1-2.7 1.5-2zm-2.5 36 2 2 1 2v-3zm-29.5-22v2q2.3-.7 1.5 1.5l-2.5 1.5-1.5-.5-.5 1.5-.5-2-2.5-1-3 1v-1zm-61 4q1.8 2.8 8 1h2q6.3-1.2 7.5 2.5l-1 2v2l-1.5 2.5q-4.2-1.3-2.5 3.5l1.5 2.5h2l3.5 1.5-4 1 .5 1.5-3-2-1.5.5.5-1.5-2.5-1.5 1-3-2.5-.5-4.5-1.5.5-1.5-3.5 1.5-.5 1.5zm265 0h19l4.5 1.5-2 1 1 2h-2l1 3.5-2.5-1-3 7-1-3-2.5 7 3 1.5-1.5.5q-.7-2.8-5-2v4l-2-1-1 2-1-2-.5 2.5.5 1.5-13.5-16.5 1.5.5h2.5l.5-2h4l2.5-1-.5-2-4 2 .5-1.5.5-2.5q1.8 3.8 3.5.5zm-95 1 1.5.5-2 1 4 1.5 1.5 4 2.5-1 1 3.5q-3.5 1.7-2 7.5 2.7-1.1 2 1.5l-1.5-.5-9.5 4.5.5 1.5-1.5-.5V307zm55 0 3 2 3.5-1 1 4.5 5 8-2.5.5-2 1-2-2-2.5.5-.5 1.5q-.5-3.5-5-3v2l-3.5-3.5 1.5-1.5 1.5-.5v-2zm-171 1 1.5 2.5h-1zm91 3 1.5 1.5V325l-3.5-2-1.5 3.5 2 1-3 .5q1.1-2.7-1.5-2l.5 1.5-.5 1.5-2.5-3.5 2-.5-.5-4-1.5.5.5-2.5 1.5.5 1-3.5 2-.5-2-.5 1.5-3v2l2-1q1.3 2.3 2.5-.5l-.5-1.5-1.5.5zm-4.5 11-1 4h1zm76.5-7 .5 3-3-.5z"/><path fill="#e07139" d="m102.5 315 2.5 2.5 1 4-1 2 .5 3.5q-3 .9-1.5-3.5h-3v2.5q3-1.2 2 2.5l.5 1.5-2.5-1-.5-2-1.5.5 1-2-1-2 1-3-1.5.5-2.5-1.5 2.5-1.5 2 1-.5-1.5.5-1.5 1 2zm192.5 3 3 1.5h-2q.8 2.3-1.5 1.5l.5-1.5zm77.5 0 1.5 2.5h-1zm-12 1 4.5 1q1.1 2.7-1.5 2l-1-1-3.5 2.5zm-252 2 3.5 2.5-1.5.5-2.5-1zm208 2 10.5 13.5-2.5-1.5q-4.2-1.1-2.5 3h-3.5v1l1.5.5-2.5.5q-1.5-2.5-3 1l-3 1v-2l-2.5 1.5 1 3.5-4.5-1-1.5.5-1.5-3.5-2 3q-2.6-.8-1.5 2.5l-.5 1.5 4.5 1.5-2.5 1.5q-1.2-2.3-6-1l-2 1-2.5-1 2 4.5-2 3.5-4.5-1 .5 1.5-.5 1.5-2-1q-2.7 1.3-.5 2.5l1 2-3-2 1-3.5-3 1.5q2.3 1.3-.5 2.5l-1-2-1 3-2.5-1.5q-1.1 3.3 1.5 2.5 1.8 3.1 3.5 1.5l-1.5 2.5-2-3-3 2-.5-2-2.5 1-.5-2.5-1-3 1-3h-1q.7 2.6-2 1.5l-1.5-4q-3.3 1.1-2.5-1.5l.5-1.5q-2.2.8-1.5-1.5l1-2.5 5.5-4v2q4.4 1.5 3.5-1.5l4-2 .5-1.5 1 2 2.5-1-3-4.5.5-1.5-1.5-.5q2-4.5 4-1l1.5 3.5 1.5-3.5-.5-1.5 1.5 2.5-.5 1.5 2-1 .5 2q3 1.3 2-2.5h2l.5-1.5 1 1 2.5-1.5-1 4 2-1 .5-1.5.5 1.5-1 3 1.5-.5 2-1h2q2.6-.8 1.5 2.5l1.5-.5 3-2 3.5 2q1.1-2.7-1.5-2l-2.5-4.5 1-2-.5-1.5 2.5 1.5-1-2 1.5.5 3-2 2-3 1 2zM292 338q-2 3-3 1-3 1-1 3-1 3 3 1l1-2zm-18 15-2 1-3 1 1 3 4 1q2 1 1-1l-3-2 2-1zm-2 6-2 2 2 2v-1q2-2 0-3m-62.5-35 3.5 1 1 2.5-2.5.5z"/><path fill="#e07139" d="m273.5 326 4.5 1.5-2 1 .5 1.5-1.5.5 2 1-6.5 3.5-1-1-4 4-1.5-.5 2-1-2-3.5-7 2-.5 2-.5-3q-2.7 1.1-2-1.5l-2-3h2l.5-1.5 2 2q2-4 4 0l4-1h2l5.5 2-1-2.5 2-.5zm25 0v2l3.5.5-6.5 4.5.5-1.5q-1.1-3.3 1.5-2.5zm-93 1h2l2.5 1.5-.5 1.5-.5-2-4 1zm186 2 .5 24.5h-1l-.5-1.5-1 2-14.5-5.5q3.1-1.8 1.5-3.5l1.5.5q.8-2.2-1.5-1.5l1-2 3.5-1.5-.5-1.5 2.5-1.5 1-2-1-2.5-3-.5 2.5-.5h2l3-2 1 2 2.5-.5zm-289 2 4.5 2.5-1.5.5-5.5-1q1 3-2 2-1.7-4.5 3.5-3zm142 0 .5 9.5h-1zm-127 2-3 4z"/><path fill="#e07139" d="m103.5 334 2.5 1.5-1 2 1 2.5 3.5-1-2 3q-2.6.7-1.5-2h-2v-2.5l-1.5.5-1.5-.5zm77 1 2 3-2.5-1.5zm27 0 3 1 1.5-.5-1 2.5 3 1.5q-.7 2.3 1.5 1.5l-1.5 2.5.5 1.5 1.5-.5q.8 2.3-1.5 1.5v2q-2.6-.8-1.5 2.5l-2 1V350h-2q1.1-2.7-1.5-2l.5 1.5.5 3.5 1.5-.5-1 2 .5 2.5 2.5.5-2 .5-.5 2-2-3q-2 2.8-6.5 2l-.5 3h-4l-5 1-3-5-1.5-.5q2.3-1.2-.5-2.5l-1 3-.5-2-2-.5 2-3.5 3-.5-2-3 3-1-.5-1.5 3 2 1.5-.5-3 6 1.5-.5 2-1 2.5.5 1 2-.5 1.5 3.5-1.5q-.8-3 3-1.5l.5 2 3.5-1.5-3-1 3-2-.5-1.5H198q1.1 2.7-1.5 2-3-1.5 0-3 1.8 2.7 3.5-1.5l-1-2q2.2 1.7 4.5-2.5l3 1q2.3-.7 1.5-4.5zm50 10 2.5 3.5-3.5.5-1.5-3zm-124 1q-1.8 2.2 2.5 4.5-.7 2.3 1.5 1.5l2.5 1 .5 4 1.5-.5q-.7 2.3 1.5 1.5l3 1 4.5 2.5.5 2.5 3.5-1-2 3.5 1 2.5 5 1.5-1 3 4.5 2.5q3.8-1 2.5 2l-2 .5 6 1-17.5.5h-2l-14.5-.5 2-1q-4.6.6-6-2l.5-1.5H130v-4h-1.5l-3.5-2v-3q-2.7 1.1-2-1.5l.5-1.5H120q1-3-2-2v-2.5zm173 5 2.5 1q1.3 4.1-2 3zm3 5 1 2 3-1-1.5 2.5-1 7.5-7.5-1-1.5 4 5.5 1 2-1-.5 1.5 2.5 3.5q-1.7-3.1-3.5-1.5l.5-1.5H306q1.3 3-2.5 2l-2.5 1-1.5-3q-2.6-.8-1.5 2.5l-1.5-.5q-3.3-1.1-2.5 1.5l-2-1 .5-1.5q-3.3-1.1-2.5 1.5-1.2 2.8-2.5.5l-1.5-.5.5-1.5-2-1-1 2-.5-3 2.5-1q1.3 2.3 2.5-.5l-2-1 1.5-.5 1.5.5.5-1.5 1.5.5-4-8 1.5.5 3-1 .5 2 3.5-1 2 4 5-3 1.5.5q-.7-2.2 1.5-1.5l1 1q1.8-3.1 3.5-1.5zM290 369l-2 3 1 3 1-2zm-66.5-8 .5 19h-8.5l-.5-1.5 3-1-3-.5 1-3.5-1-3.5q3 1.3 2-2.5l1-2.5-2-.5 1.5-.5 1 1 2.5-1.5q-.7 2.6 2 1.5zm92 2 2 3zm-71 1 9.5 4 1 2.5-1.5 2.5 1.5.5v2q-.7 2.6 2 1.5v2h3.5v1h-9l-1 1-6.5-1zm117 0q9.8 5.7 22.5 8.5l-2 1 1 2.5q-3-1.2-2 2.5l-1.5 1.5h-31l-.5-2.5 1-2-.5-1.5q6.1 1.3 5.5-1.5l1.5-2.5 1.5.5 1-2-.5-1.5q1.5 2.5 3-1l1.5-.5zm-86 3 1.5 2.5-2 1 1.5 2.5q-2.2.8-1.5-1.5h-1l-.5 2.5q-2.8-1.2-.5-2.5V369q2.8 1 2.5-2m5 0 1.5 3.5-2 .5zm-203 7 1.5 5.5-2 .5z"/><path fill="#884c31" d="m406.5 112 2 3zm-330 15 149.5.5-150 .5-.5 9-.5-8.5zm165.5 0h151.5l.5.5v9h-1v-8l-.5-.5H243l-.5 76zm149.5 25 2.5.5V206l-48-.5 47-.5v-51.5l-1.5-.5zm-316 1 .5 52 48 .5-49 .5zm51 6 2 3zm216 0-2 3zm-209 6 5 6zm202 0-2 3zm22 3-2 3zm-242 3 3 4zm237 1-2 3zm-24 1-2 3zm-186 2 2 3zm198 9-3 4zm-211 1 2 3zm75 27-2 3zm61 1 3 4zm7 7 2 3zm-77 1-2 3zm47 0 .5 66.5h-1zm130 0 7.5.5-7.5.5zm-297 1 .5 65 32 .5-31.5.5-1.5-1.5zm49 0 .5 11.5h-1zm220 0 .5 64.5h-1zm49 0 .5 66-33-.5 32-.5zm-144 1 2.5 1.5-1.5-.5zm-36 3-2 3zm43 1 5 6zm-117 1 6 7zm190 0-6 7zm-121 3-2 3zm-41 3 .5 4.5h-1zm134 2 .5 4.5h-1zm-133 10 .5 19.5h-1zm32 1 .5 3.5h-1zm85 1 .5 6.5h-1zm-102 1 .5 10.5h-1zm134 0 .5 9.5h-1zm-32 7 .5 5.5h-1zm16 13 .5 5.5h-1zm-134 3 .5 3.5h-1zm156 1 7 8zm-60 1-2 3zm10 14-5 6zm-77 1 4 5zm-53 7q2.3-.7 1.5 1.5h-3zm-22 7 4.5.5-4.5.5zm222 0 4.5.5-4.5.5zm-268 1 .5 51 3 .5-4 .5zm318 0 .5 51.5h-1zm-150 1-.5 1.5-.5 75.5-.5-75.5zm69 7 2.5 3.5-2-1zm26 10 3 4zm-208 1-2 3zm194 8 2 3zm-204 2-2 3zm229 0 3 4zm-207 1-3 4zm186 2 12 13zm-197 9-4 5zm-7 6-2 3zm-49 21 .5 9.5h-1zm318 0 .5 9.5h-1zm-328 26 338.5.5-338.5.5z"/><path fill="#0d0a0e" d="m65.5 111 338.5.5-262 1 252 1-5 1 3 2-.5 1.5 4 2 1.5-.5.5 1.5 2-1-.5 1.5 1.5 2.5 2-1 1.5 2.5h-2l3 5-2 3 2 .5 1.5 3 1.5-.5.5 8.5 1-28 .5 275.5h-1l-.5-6.5-.5 4-3 1.5-.5 1.5-2.5-1-1.5 3-1.5.5q5.4-.9 7 2l-1.5-.5h-340l-1 1q1.7-2-2-4l-1.5.5 1-3h-1l-.5 1.5-.5-1.5q2.5-1.5 1-7l1.5-1.5 3 1h2l2.5 1.5-3.5 8.5q-1.7-3.8-3.5-.5l2.5 2.5h20l2.5-1.5-2-1v-2l1-5-4-2 54.5-.5v1l-1.5.5 3 .5.5-2 2 3 4-1 4.5 2 .5-2 4 2 2.5-.5.5-1.5 2 1 3-1h2l3 1-1-2-2.5-.5 51.5-.5v1l-1.5.5 1.5 3.5q3.3-1.1 2.5 1.5h1l.5-1.5 1.5 4h3q-1.2 3 2.5 2l3-2 2.5.5-1 2 1.5.5 3-1 1 1h21v-1l-1.5-.5 2-1 1.5 2.5 3-1 4 1v-1l-2.5-1.5 1-3.5q-2.7 1.1-2-1.5l2.5-.5q2.3.8 1.5-1.5l1-2.5 80 .5-6 .5-1 4.5 5 2.5-2 3.5 18 .5.5-4 2 3 1.5-2.5-.5-1.5 2 1 .5-2 6 1 .5-2 1.5.5 3-5.5 15-.5-151-1 153-.5v-10h-4.5v-1q4.4 1.5 3.5-1.5l4-1.5-1-2.5 1.5.5 3 2 .5-1.5q-2.2-1.2.5-2.5l.5 2 2.5-1 .5 1.5-.5 1.5 2-1 1 11 .5-218.5h-1l-.5 8.5-4-5-2.5 1-2-5q-3.8 1.5-3-1.5l-2.5-6.5-3.5.5.5 1.5-3.5-1.5.5-1.5-4.5-1-1.5-4-3.5 2.5 3 1-4 .5.5 2 1.5-.5q-1.2 2.8-2.5.5l-4.5-2.5q3.8-1.7.5-3.5l-2.5-1.5 1.5.5 3 2 2-1 3.5 1q-1.1-2.7 1.5-2l-1-2-2 1v-3l3 1v-2l4 1v-2l6 1v-2h3.5v-9.5l-1.5-1.5H363q1.1-2.7-1.5-2h-2l-2.5-.5 1-2h-2l.5-1.5q-2.2-.7-1.5 1.5l-1.5-.5-2.5-1.5.5-1.5q-2.2.8-1.5-1.5h-1l-.5 1.5-3-4-1 2-1.5-.5-2 4 2 .5-1 4.5.5 1.5h-100l-1.5 1.5-.5 3.5-.5-3.5.5-1.5-7.5-4.5-.5-2.5-4 2q-1.7-3.8-3.5-.5.6 2.8-5.5 1.5v2l-2-1-3.5 1.5 4 1-108.5.5h-2l-11-6-3 5-1.5-.5 2-1-2.5-.5h-2l-3 1h-2q-2.6-.7-1.5 2h-6.5l-.5 1.5h-2l.5 10.5 4-1v1q-3.7-.7-4.5 1.5l-2 4 .5 1.5-1.5-.5-1 3.5 3 .5-5 2 1 2-1.5 2.5-.5-2q-2.7-1.1-2 1.5l.5 1.5-2-3-.5 4.5 1.5-.5q2.6-.7 1.5 2-4.1-1.3-3 2l2 .5-1.5.5-2.5-1.5 1 3-1.5 4.5-.5-49.5-1-2h1l.5 1.5.5-2.5q-2.3-1.2.5-2.5h2l6.5-.5-4.5-.5zm20.5 1v1h5zm7 0v1h46zm247 2-2 2 2 2v-1l3-2zm29 279-2 2q-1 2 2 1z"/><path fill="#0d0a0e" d="m348.5 122 1.5 4-2-.5v-2zm-123 2 1 2-2.5-.5zm1 3 1 24 1-12 .5 5q2.7 1.1 2-1.5l2-1 .5 1.5 2-3 1.5.5.5-1.5 1 1 2.5-1.5-.5 47.5-1-2-3.5 7.5 1 2-1 2 3 1h-2l1 2-1.5 2.5q2.6-.7 1.5 2-2.7-1.1-2 1.5l.5 1.5-1.5.5.5 1.5-1.5.5 2 1-1.5.5h-2l-2.5-.5q2.3-1.2-.5-2.5l-1 2-.5-2-6 .5 1 2.5q2.7 1.1 2-1.5h1l-1 2 .5 1.5-1.5.5 1 2.5 2.5 1 1.5-.5.5 2.5 1.5-.5v2l-1 2 2.5 1.5h2l2.5 1.5-3 1 6 2.5.5-5 .5 47.5h-1l-1.5-3.5-2.5 1.5-2.5 8.5-1.5-.5 1 2-2.5 1.5-1.5-.5-.5 5.5-.5-26.5h1q-1 4.5 1.5 5.5l1.5-4.5-2-4 .5-2.5 1.5.5q1.5-7-1.5-6.5l-1.5-.5-.5 1.5-1-28-1 69-.5-68-4.5-1v2l-2-1v2l-2-1v2l-1.5-.5-1.5 2.5q-1.3-2.2-2.5.5l-3.5 4.5-1.5-.5-2 3 .5 1.5-1.5-.5-1 2 .5 1.5-1.5-.5-1.5 3.5-2.5-1-.5-3-1.5 2.5v2l-.5 1.5q-1.7-3.7-3.5-.5l1 2-4 1-.5-1.5-2 4-1.5-6.5h1l.5 1.5 1-3 2 4q2.8-1.2.5-2.5-.7-2.2 1.5-1.5l1.5.5-.5-3.5-.5 2q-5.2 2.1-4-2.5l-.5-1.5 1.5.5-1-2h2l1-3-.5-1.5 1.5-.5-.5-1.5 1.5.5 1-2-.5-1.5 1.5.5 2-3-1-1 5.5-5.5q1.5 2.5 3-1l1.5-.5-.5-1.5h2l1.5-.5-.5-1.5 2 1v-2l1.5.5.5-1.5 2 1v-2l3 1v-2l4 1v-1l-1.5-.5 1.5-.5 4 1 .5-2.5zm1.5 45-1 32h1zM99.5 145l3 1 1.5-.5-.5 1.5 2-1v2l2-1v2l2-1 2 3 1.5-.5.5 1.5 1.5-.5-.5 1.5 2 1 1.5-.5-.5 1.5 2 1q1.3-2.2 2.5.5l1.5 2.5q1.3-2.2 2.5.5l2.5 3.5 1-1 4.5 4.5-1 1 4.5 4.5 1-1 3.5 3.5-1 2 5 3h-2l2.5 3.5 1.5-.5-4 2-.5 1.5-1-2-1.5 1.5 1.5 2.5-3.5-1 1 2.5-3 1 1 2h-3l1-2-4-2 1.5-1.5 3.5 2.5-1-3 2-3-2-.5 1-4.5v-2l-1-2 1-2-3.5-3.5-1 1q-2.6.7-1.5-2h-2.5l-1.5 1.5 1.5 2.5-4-1-2 1-4-2v2l-3-2q-1.2 2.3-2.5-.5l.5-1.5-2-1q-1.3 2.3-2.5-.5l-.5-1.5q-1.2 2.3-2.5-.5l-.5-1.5-1.5.5.5-1.5-2 1v-2l-2-1-1.5.5-.5-1.5-1.5.5q.8-2.2-1.5-1.5l-1.5.5.5-1.5-2 1v-2l-3 1v-1l5.5-2.5 2.5-4.5 2.5-.5zm43.5 35-2 2h3zm220.5-34 2.5 1.5-1 2 2.5.5 1.5.5-3 1 5 2.5 2 3.5-2 1 .5 1.5h-2l-1.5.5.5 1.5-2-1v2l-1.5-.5-.5 1.5h-2l-1.5.5.5 1.5h-2l-1.5.5.5 1.5h-2l-3.5-1-.5-2-1.5.5 1-2-3.5-4.5-3 1-2.5-.5 3.5-1.5 1.5-.5q-2.3-1.2.5-2.5h2l1.5-.5-.5-1.5h2l1.5-.5-.5-1.5 2 1v-2h2l1.5-.5-.5-1.5 2 1v-2l2 1zm-3.5 7-1 4h1zm-5 1 2 4 1-2zm-15.5 8-8.5 9.5 1 3 1.5 2.5q2.3-.7 1.5 1.5l3.5 4.5q1.5-3.5 3-1l8.5-7.5-10.5 10.5-1.5-.5-2 3q2.3 1.3-.5 2.5l-2.5 1.5.5 1.5-1.5-.5-1 2 .5 1.5-1.5-.5 1 2-2.5.5-3-1h-2l-2-1q-1.7 2.8-3.5-1.5l-2-4 3-2-.5-1.5 1.5.5 1-2-.5-1.5 1.5.5 1-2-.5-1.5 1.5.5 1-2q-2.7-1.7 1.5-3.5l3.5-2.5-1-1zm-274 1 .5 1.5-1.5 2.5-.5-1.5zm5 2 3.5 2v38.5l1.5 1.5 13.5.5-6 .5 1 3.5-3 1-2.5 3.5h-2q-2.6-.7-1.5 2h-2l-1.5-3-1.5 4-2 .5 1.5 2.5-3.5 1.5 1 4 4 4-4 2 1.5.5 1.5-.5-1 2h2l-1 2q1.5 3 3 0l.5-1.5.5 41.5h-1l-1.5-2.5-2 4-1.5-.5 1 3.5-3 .5.5 1.5-3-2q1.7 2.2-2.5 4.5l-.5 1.5-.5-118.5h1l1 5-.5 1.5q2.6.7 1.5-2h3v-1.5l-1.5-2.5 3.5 2 .5-3 .5 3 3-1.5 1-2z"/><path fill="#0d0a0e" d="M66 166q2.7-1.1 2 1.5l-1.5 2.5zm52.5 7 11 12zm289 5 .5 37.5v3.5h-2q1.1 2.7-1.5 2v-2l-2 1-.5-2-4.5 1-3.5-1-.5 2h-32l-.5 2.5-.5 65.5-1-66-.5 25-3.5-1-.5 1.5.5 1.5-1.5.5 1 3.5q-3-1.2-2 2.5l1.5 2.5q-1.2-2.2-2.5.5l.5 1.5q1.3-2.2 2.5.5v2l1 2-.5 1.5q3.3 1.1 2.5-1.5h1l-.5 17.5-.5-2-5.5 1q-1.5-2.5-3 1l-2-1-.5 2.5.5 1.5-1.5-.5v-45h1l.5 3.5 2.5-.5 1-3-1-4 1-2q-3.5-1.5-1-3V228l-2-.5v-5h-1l-.5 5.5-.5-5.5 1-2.5q-3.8 1-5-1.5l-.5-1.5-2.5 1 1-5-2.5 1 .5-1.5q1.1-3.3-1.5-2.5l-1.5.5 4-2-2-1 1.5-.5q1.2 2.2 6 1v-1l-2.5-.5 2.5-.5 1 1h21l1.5 1.5q-.7 2.6 2 1.5v2h3.5l5 3 5-1-.5 1.5.5 1.5 5.5-1q1.1 2.7-1.5 2v1l4.5-.5q-2.2-1.3-1-6l-1.5-1.5-1.5-.5 2-1-3-2 6.5-.5 1.5-1.5v-26l3.5-.5 3 2v-2q2.3-.7 1.5 1.5l2 3q-2.2 1.3.5 2.5 2.6.8 1.5-2.5v-2zm-283 28 3.5.5-3 1 4.5.5 2-1v1l-2.5 1.5 1 3-.5 1.5 1.5.5-4 3 2 3-6 1.5-.5 28-.5-4-2.5-1-.5 2-2.5 1 .5-1.5-.5-1.5-1.5.5-1.5-3.5-1.5.5.5 1.5-1.5-.5-.5 1.5-1-11-.5 41.5h1l.5-13.5 1 3 1-2 .5 3q-2.7-1.1-2 1.5l1.5 1.5 2.5-1.5 1.5 2.5h2.5v3q2.7-1.1 2 1.5h1l.5-2.5 1 15 1-29 .5 30 4.5-1-1 2q-2.2-.7-1.5 1.5v4q-.7 2.3 1.5 1.5v1q-3-.8-1.5 3l3 .5-4 1 2 1-1.5.5-1-1-37.5-.5 3-1-3-1.5q1.3-3.3-3.5-2v-1q2.3.8 1.5-1.5l-1.5-2.5 1.5-.5-5-2 27-.5v-66.5l-.5-.5h-11v-1l11.5-.5-24-.5q2.1-5.2-2.5-4v-1l3 1 1.5-2.5-.5-1.5 3.5.5 1.5-3.5.5 2 3-.5-.5-1.5H95l.5-2h28zM112 239l-1 3 2-1q2 1 1-1zm142.5-30 3 1 1.5-.5-.5 1.5 2 1 1.5-.5-.5 1.5 2-1 1 3 4 3q1.7-2.7 3.5 1.5-2.5 1.5 1 3l.5 1.5q1.3-2.2 2.5.5l-.5 1.5 2.5 1.5-1 2h2l-1 2h2l-1 2h2l-1 2.5h-3q1.1 2.7-1.5 2l-7.5 3-2.5-5-1.5.5.5-1.5-2.5-1.5 1-1-6.5-6.5q-1.3 2.3-2.5-.5l-.5-1.5-1.5.5.5-1.5-3-1-1.5.5.5-1.5-2 1v-2l-1.5-.5 2.5-3.5 5-2v2l2.5-1.5-1-3zm-95 1 1 2 1-2 .5 1.5-1 3h2l-1 4h1l.5-1.5.5 1.5-1 4h1l.5-1.5.5 1.5-1 4h2l-1 6h1l.5-1.5.5 2.5-1 1v10h1l.5-5.5.5 6.5-1 1v19q2.3 1.3 1 6h-1l-.5-2.5-.5 6.5 1 3h-1l-.5-1.5-.5 4.5 1 2h-1l-.5-1.5-2 8-1-4q-2.8 1.3-.5 2.5l-.5 1.5-1.5-.5-.5 1.5-1-2-3 2-2.5-1-.5-2-1.5.5 1-2-2-3.5 3-.5-3-.5 1-5.5-3.5-2.5-7.5 6.5 7.5-7.5 1.5.5-1-2 3-1-1-2h2l-1-3h2l-1-4h1l.5 1.5.5-4.5q-2.3-1.2-1-6l1-5h-2l1-4h-2l1-2.5-2-.5.5-1.5-1.5-.5v-2l-.5-1.5-1.5.5q2.5-1.5-1-3l-.5-1.5q-1.2 2.3-2.5-.5l.5-2.5 3.5 1-.5-2-1.5.5q2-3.7 4-2l4-7.5q2.7 1.1 2-1.5l-1-2 1.5-2.5 3.5 1zm-2.5 39 1 2h1zm-3 4-1 4h1zm80.5-41 .5 3-2.5-1-1.5.5 3-1zm74 1 2 4 3 2v2l3.5-1q-1.1 2.7 1.5 2 2.8 1.3.5 2.5l2.5 4.5 1.5-.5q-.7 2.3 1.5 1.5 1.3-2.2 2.5.5l-4 2-1 2 .5 1.5-1.5-.5-1 2 .5 1.5-1.5.5.5 1.5q-2.2-.7-1.5 1.5l.5 1.5-1.5-.5 1 5h-1l-1.5-3.5H312q1.3-3-2.5-2l-2-3-1 3-2-4-1 2-.5-3 2-.5-2-11h1l.5 1.5.5-3.5-1-2h2l-1-5h1l.5 1.5zm-72 3q3 1.5 0 3-3-1.5 0-3"/><path fill="#0d0a0e" d="m75.5 221 19.5.5-19.5.5zm288 0 8.5.5-8.5.5zm17 0 13.5.5-13.5.5zm27 1 .5 3q-2.7 1.1-2-1.5zm-1 4q3-.9 1.5 3.5h-1zm1 7 .5 5.5h-1zm-283 8 .5 14.5h-1zm177 0 .5 27.5h-1zm106 8 .5 3.5h-1zm-138 1 .5 9.5h-1zm-84 1 1.5 2.5-1.5 2.5zm14 1 .5 5.5h-1zm-77 1 .5 13.5h-1q.8-2.2-1.5-1.5l-1.5-.5-.5 1.5h-2l-2.5-1.5v-4q-.7-2.2 1.5-1.5l3-3h2l1.5-.5-2-1zm285 1 .5 4.5v2l-.5 76.5-1.5-1.5 1-3-1.5-4.5-4 2-1.5-.5-.5 1.5-2-3-1 2-1.5-1.5V304l-47-.5 46-1-29-1 3-.5 1-5 3-1.5.5-1.5 1 2 .5-3q3 1 2-2l-3-.5 20.5-.5 1.5-1.5v-16l3.5-.5 3.5-6.5-.5-1.5q1.3 2.3 2.5-.5l.5-4.5 1 3zm-3.5 9-2 5h2l2-4zm-6 27-1 2 2 1zm-114.5-35 .5 5.5h-1zm32 4 1 3 1-3 .5 2.5-1 3h2l-1 2h2l-1 2 3 2-1 2h2q-2.5 1.5 1 3l.5 1.5 1-1 3.5 3.5-.5 1.5 2 1q1.3-2.2 2.5.5l-.5 1.5 2-1v2l2-1v3H334q1.1 2.7-1.5 2v2l-2.5-1-1.5 3-1-2-1 2-2-1 1 2 2.5 1.5-1.5-.5-3 1-8-3v2q-2.6-.7-1.5 2l3 .5-.5 1.5q2.6-.8 1.5 2.5l3-1-1 2 3 1-3 3 1 1-.5 1.5-1-2h-2q-2.2.8-1.5-1.5h2l-.5-3.5-2.5.5-.5 1.5-1.5-.5 2 3-3.5 2.5.5-1.5 1-2-2-.5-.5-2-1 2-.5-1.5 1-2h-2l1-3h-2l1-3h-2l1-3h-2l1-4h-2l1-5h-2l1-6h-1l-.5 1.5-.5-3.5 1-1 .5-13.5 2 3q3.8-1.2 2.5 2.5l2-1 2.5-4.5zm6.5 21-3 2 4 1v-2zm-53.5-17 1.5 5 3 1.5q-.7 2.3 1.5 1.5l7.5-3 1 3.5h-2l1 3h-2l1 2h-2l1 2h-2l1 2h-2l1 2-4 3q2.3 1.3-.5 2.5l-6.5 4.5q2.3 1.3-.5 2.5-1.2-2.2-2.5.5l-.5 1.5h-2l-1.5.5.5 1.5-2-1v2l-1.5-.5-.5 1.5-2-1v2l-3-1-2 1 .5-1.5-1-3 1-3h-1l-.5 1.5-.5-3q2.7 1.1 2-1.5l-.5-1.5 1.5-.5-5-2 1.5-.5 2 1v-2l2 1v-2l2 1 1-3h2l1.5-.5-1-1 4.5-4.5 1.5.5 2-3-.5-1.5 1.5-.5-.5-1.5 1.5.5-1-2h2l-1-2h2zm-68 5 1 2 1.5-.5-1 2h2v2l.5 1.5 1.5-.5v2l.5 1.5 1-1 5.5 5.5 1.5 2.5 1.5-.5-.5 1.5 2-1v2l2-1v2l2-1v2h1.5v4h1.5l2.5 1.5-.5 2.5-3 2-1.5-.5-1 3.5 2 .5-4.5 1.5v-1l1.5-.5-2.5-.5-1.5.5.5-1.5-3 1v-2l-2 1v-2l-2 1-2-3-1.5.5-1.5-2.5-1 1-3.5-3.5.5-1.5q-2.2.8-1.5-1.5l-4-2q2.3-1.3-.5-2.5l-2.5-1.5.5-1.5-1.5-.5 1-2-2-3 1.5.5q3.8 1.3 2.5-2.5 3.5-1.5 1-3l.5-1.5q1.8 3.7 3.5.5zm-8 2 .5 2.5-2-1zm-3 3 .5 1.5-2 1zm151 13 1.5.5-3.5 1.5v-1zm3 1 1.5.5-3.5 1.5v-1zm-282 9 .5 3.5-.5 2.5q-3.4.9-1.5-4.5z"/><path fill="#0d0a0e" d="m322.5 297 1 2 1.5-.5-2.5 3.5.5-1.5zm2 5 1 2 1.5-.5q-1.5 3-3 0zM60 303l2.5 1 1.5-.5-4 3zm15.5 0 45.5.5-45.5.5zm151 2 1 29 1-10 2 5q1.9-3.6 8-3l1.5.5.5-1.5.5 39.5h-1l-.5-1.5-1.5.5q.8-2.6-2.5-1.5v2l-3-2-3.5 1-.5 2-1-13-.5 31-152-.5 151-.5zm1.5 34-1 5h1zm0 6-1 5h1zM60.5 311l3.5 4.5-3 1 1.5 2.5-1.5-.5 2 3-3-2zm77 2 2.5.5-.5 1.5q2.3-.7 1.5 1.5l2.5.5 3.5 1.5q-2.2 1.3.5 2.5 1.8-2.7 3.5 1.5h-2l-1 2 .5 1.5-1.5-.5-1 2q2.3 1.3-.5 2.5l-2.5 1.5q2.3 1.3-.5 2.5l-4.5 3.5 1 1-6.5 6.5-1-1-2.5 1.5V344h-4q1-3-2-2v-4.5l-.5-1.5 1.5.5q.8-2.2-1.5-1.5l-1.5-1.5 8.5-8.5 2.5-1.5q-2.2-1.2.5-2.5l2.5-1.5-.5-1.5 2.5-1.5-.5-1.5 1.5.5z"/><path fill="#0d0a0e" d="m73.5 314 .5 42 5.5 1v-2l4 1v-2l4 1v-2l3 1v-2l2 1v-2l3 1v-2l2 1v-2l2 1v-2l2 1v-2h2l1.5-.5-.5-1.5 2 1v-2l2 4 3.5 1-1 2.5 1.5 4.5q1.8-2.7 3.5 1.5l-1.5-.5-2.5 1.5.5 1.5-2-1v2l-2-1v2l-2-1v2l-2-1v2l-2-1v2l-3-1v2l-2-1v2l-3-1v2l-3-1v2l-4-1v2l-5-1v1l1.5.5-1.5.5q-1.2-2.2-6-1-3.2 1.3-3 6l-.5-2-2.5 1-2.5-1-1.5 3h-2l-3.5 1.5-.5 1.5-.5-53.5v-2l.5-2.5.5 3 2 .5v2l.5 1.5 1-4 1 5 .5-2 2-.5-2-1q2.3-1.2-.5-2.5-2.6.8-1.5-2.5l4.5-3.5 2.5 1-1-2.5zM64 338l1 1 1 1q1-3-2-2m1 2-3 1 1 3 2-1zm.5-24 1.5.5-2.5 1.5zm276 10 11 12q1.3-2.2 2.5.5l-.5 1.5 2 1q1.2-2.2 2.5.5l1.5 2.5 1.5-.5.5 1.5q1.3-2.2 2.5.5l.5 1.5 1.5-.5-.5 1.5 2-1v5l-2-1 .5 1.5-5 5 1 1-.5 2.5-1-2-3 2-2-3-1.5.5-.5-1.5-1.5.5.5-1.5-2-1-1.5.5.5-1.5-2-1q-1.2 2.3-2.5-.5l.5-1.5-2-1-1 1-3.5-3.5-8-10 4.5-.5q3.3-1.1 2.5 1.5h1l2.5-6.5 1.5.5-1-2 1-1zm61 7 2.5.5-3 2zm-75 1 2 3zm62 35 3.5.5-3.5.5zm-328 12 2.5 1.5-1.5-.5zm81 3 3.5.5-3.5.5zm12 0 5.5.5-5.5.5zm196 5q3 .5 2.5 4.5l-3.5 1.5-2.5-1.5 2-1 .5 1.5zm6 4-1 2-1.5-.5z"/><path fill="#050509" d="m63.5 112 6.5.5-6.5.5-1.5 1.5.5 1.5-1.5-.5-1 3v49h1l1-4-1-3h2l-2-3h2q-.7-4.7 1.5-6.5l.5 2q2.7-1.1 2 1.5h1l1-3-.5-1.5 4.5-1.5-3-.5-1-2.5h2l4-7-1-1v-10h1V138h6.5l19 6 9.5 5.5-1.5-.5-9-4-.5 2.5.5 1.5-3.5 1.5-2.5 4.5-2.5.5 6 3-1.5.5-5-3-15.5-4v54h48.5v1h-28l-.5 2h-1.5v2q-3.3 1.1-2.5-1.5h-1l-1.5 3.5q-1.2-2.2-2.5.5-2.8 2-2 6.5l24 .5-33 .5v67h32.5v1l-26.5.5 5 2-2 1 2 3.5-2 .5 4 .5q-1.1 2.7 1.5 2l1 2-2.5.5 37.5.5 4.5-1.5-3-.5q-1.5-3.8 1.5-3v-1q-2.2.8-1.5-1.5v-4q-.7-2.2 1.5-1.5v-1l-3.5-.5q14.5-3.5 22-14 4.7-5.8 5.5-15.5l.5 4.5-6 12 3 2-1 5.5 3 .5-3 .5 2 3.5-1 2h2q-.7 2.3 1.5 1.5v-2l3 2 1.5-.5.5 1.5 1-2 1.5.5-1-2 2-1 .5 3.5 3-13 .5 4.5q-5.1 28.9-20.5 47.5l1.5-2.5 3-5-4-2q2.3-1.2-.5-2.5l-3-1-1.5.5q.8-2.2-1.5-1.5l-1.5-.5-2.5 3.5 1.5-2.5 6-12 2-8-2.5 1.5-17 6H75l-.5 53-1-42-3.5 2.5 2 3-1.5-.5q-2.2-.7-1.5 1.5h-1q.8-2.2-1.5-1.5-3.2 1.2-2.5 5l3 1.5-.5 1.5 1.5.5-2 .5-.5 2-1-5-1 4-1.5-2.5.5-1.5-2.5 1.5.5 53.5 2-3 2.5-.5-.5-1.5q1.8 3.8 3.5.5-.7-2.2 1.5-1.5h2q2.3-.7 1.5 1.5h1q-.7-4.7 2.5-5.5l13-2v1L75 372v10.5l.5.5H227l.5-31 1 13 .5-2 3.5-1 2 1 3.5-1 .5 2 1.5-.5.5 1.5.5-39.5h-1l-.5 1.5-4-1-5 3-2-5-1 10-.5-29q-11.1-.7-18-6.5l1.5.5 12 4v-1q-2.2.8-1.5-1.5l2.5-4.5 1 2 2.5-1.5-.5-2.5-3.5-1v-4h-1.5l-8.5-5.5 2.5 1.5 11.5 4v-68.5l-2.5-.5-8 4 1-2 9-3 1.5 1.5.5 27.5 1.5-2.5-1-2h1l1 2-.5 1.5q3-.5 1.5 6.5h-2l2 4v2l-1.5 4.5q-2.6-1.4-2-6l-.5 26.5h1l.5-5.5h2l1.5-.5-1-2h2l1-4-.5-1.5 1.5.5q-.7-3.7 1.5-4.5l2.5 1.5.5 2.5.5-47.5h-1q1.9 5.4-1.5 4.5l-4.5-2.5 1.5-2.5-2-1-2 1q-2.7-1.2-.5-2.5l-2.5-5.5h-2l-2 1 .5-1.5-1-2 2-1-3-1.5-1.5-3-8 2v-1l12-3 1.5-1.5.5-31.5.5 31.5q-1.3 3.2-6 3l6 .5.5 2 1-2 1 3 5.5-2.5-.5-1.5 1.5-.5-1-2.5q3 1 2-2l-2-.5q3.5-1.5 1-3l-1-3 1-2-1-3 1-2-.5-1.5 1.5.5 1.5-2.5 1 2 .5-47.5-4 1-.5 1.5-1.5-.5-1.5 2.5-1-2-1.5 3q-3.7 1.3-2-4.5h-1l-.5 11.5-.5-24-151-.5 7-.5-1-2.5 2-1-.5 1.5 2-1 2 1 2-1h2l3 1 .5-1.5-1-2h1l.5 1.5 1-2 11 6h2l108.5-.5-4-1 3.5-1.5 2 1v-2q6.1 1.3 5.5-1.5l1.5-1.5 2 2 2-2 2.5.5 1.5 3.5 7 4 1-1 100.5-.5-1-2 1-3.5-2-.5 2-4.5-3 1.5-1.5 2.5.5-1.5-.5-1.5-1.5.5.5-1.5-1.5-.5 1.5-.5h2q4.3-.7 5 2l1-2 4.5 2.5q-.7 2.3 1.5 1.5l1 3 2 1 .5-2 3 1.5-1 2 2.5.5v-2l3 2 1.5-.5-1 2.5h30.5l1.5 1.5-.5 9.5-.5-10H242v78q21.6 2.6 32 17.5l2 3-3-2-7.5-8.5-10-5q-2.7 1.3-.5 2.5l1 3-2.5.5-3-1v2l-3-1-2.5 3.5 1.5.5 1.5-.5-.5 1.5 6.5 3.5-1.5-.5-10.5-4v68.5l1.5.5q12-3 18.5-11.5l2.5-3.5-1.5 2.5-5.5 6.5-9.5 5.5 3 1-2 1 1 2.5q-3-1.2-2 2.5h1l.5-1.5.5 2.5-1 2 1 2-.5 1.5 6-2v1l-13.5 4v78h150.5v1h-14l-.5 1.5-3.5 4.5-1.5-.5 1.5 2.5 1.5-.5q-1.7 3.3-3.5-.5l-5.5-1-.5 2-2-1-.5 2.5-1.5 2.5-.5-2.5-.5-1.5-.5 4-18-.5 2-3.5-5-2.5 1-4.5 6-.5-80-.5-1 4-2.5 1-1.5-.5q-.7 2.6 2 1.5v2.5l.5 2.5 1.5.5-3.5.5h-2l-3-1-1 1h-21l-3-1-2 1 .5-1.5-.5-1.5-3 1-4.5 1q1.3-3-2.5-2l-1.5.5 1-2-1.5-2.5-1 2-.5-2-4-1.5.5-2.5 1.5-.5-51.5-.5v1l3 1 1.5-.5-2.5 1.5-2-1h-2l-4 1-1.5-.5-.5 1.5h-2l-4-2-.5 2-4.5-2-4 1-2-3-.5 2-3-.5 2-1-54.5-.5v1l3.5 1.5-1 5 .5 2.5 1.5.5-2.5 1.5-20.5.5 340.5.5v-1l-5.5-.5 3-2q-.7-2.2 1.5-1.5l1.5.5 1.5-2.5q3 .9 1.5-3.5h1q2 8.5-2.5 10.5l-2 1h-340l-3.5-2.5-2-5v-272zM226 124l-2 2h3zm15 3-1 4h1zM65 157l-2 2h3q1-3-1-2m1 9 1 4 1-2q1-3-2-2m7 1v2l-2 3q-3 1-2-2h-1v2q-3-1-2 2h-3v2l1 1-2-1v-1l-1-5h-1l1 118v-1q4-3 3-5l3 2-1-1 3-1-1-3q1-3 3-1l1-3 1 3h1v-42l-1 2-3 1q1 2-1 1l1-2-1-2q1-3-1-2l-1-2 1-3-2-5 2-1-1-2 3-2 2-4 1 3h2q-1-3 2-2l-2-4 2 1 2 3 2-3 3-1-1-4h6l-13-1-2-1v-38zm162 45-2 3h2zm2 4q-3 2 0 3 3-1 0-3M69 229q-3 4 2 3zm-7 67-2 2q-2 5 2 4zm-2 7 1 4 1-3zm1 8v9-1l1-3-1-2q2-2 0-3m5 5-1 2 2-1zm-4 67-2 2 1 9 3-2 2 2 3-8-2-2h-2zm81 1v1h3zm12 0v1h5zm196 5-1 5q2 3 3 0 1-4-2-5m-2 3q-3 2 0 3h1z"/><path fill="#050509" d="m85.5 112 5.5.5-5.5.5zm7 0 46.5.5-46.5.5zm50 0h263l3.5 3.5-.5 29.5-1-9q-1.2 2.3-2.5-.5.8-2.2-1.5-1.5l-1-2 1.5.5 1-2-3-5 1-2-1.5.5-2.5-1.5 1-2-1.5-.5-1.5.5-.5-1.5-2 1-3.5-2.5q2.3-1.2-.5-2.5l-1.5-.5 5-1-251.5-.5z"/><path fill="#050509" d="m388.5 138 3.5.5-3.5.5zm-9 2 2.5.5-3 1 3 2-2 .5.5 2 1.5-.5 1 3.5 5 1.5-.5 1.5 6-1 1.5 1.5 1 6.5q3.8-1.5 3 1.5l2 3.5 2.5-1 2 3 1.5-.5q-2.2 1.3.5 2.5l1-9 .5 218.5h-1l-.5-10.5-2 1 .5-1.5-.5-1.5-2.5 1-.5-2q-2.7 1.3-.5 2.5l-.5 1.5-3.5-2q1.3 3-2.5 2l-1.5 3h-6.5l-12-3-17.5-8.5 1.5.5 2-1 1 2 .5-2.5-1-1 5-5-.5-1.5 2.5-1.5-4-3 1.5.5q11.7 7.5 27.5 10l.5-53 .5 24.5 1.5 1.5 1-2 2 3 1-2 3 1 2.5-1.5 1 4-1 3 1.5 1.5.5-76.5v-2l-.5-4.5-2 7-1-3-.5 5 3 1.5-.5 1.5-1-2-1.5 4-2-.5 2-4-2 1-3.5 6.5-3.5.5v16l-1.5 1.5-20.5.5 3 .5q1 3-2 2v2.5h-1l-.5-1.5-2 3q-2.2-.7-1.5 1.5l-1 3.5-3 .5 29 1-50.5.5q-11.9-2.1-20-8l.5 1.5q7.7 23.8 25 38l-5-3-.5 1.5-1.5-.5q.6 5.1-2.5 6.5l-.5-2-3.5 1q-1.2-2.2-2.5.5l7 8-10-9q-17-17.5-24-45h1l3.5 10.5 1.5-.5-1 2.5q2.7 1.1 2-1.5h2l1-3-1-1 1.5-2.5q-3.7 1-2.5-2l2-.5-.5-1.5 2 1 2-1v1l-1.5.5 4.5.5 2.5-1.5-.5-1.5 2 1 1-2 1 2 1.5-3 4-1q-1.2-3 2.5-2l-1-2-11.5-8.5-4-6 2 1 6.5 8.5q6.8 6.5 16.5 8v-66.5l-1.5-.5q-11.6 2.9-18.5 10.5l-4.5 6.5.5-1.5 4-6-2-.5-.5-2-1.5.5-2-4q2.3-1.2-.5-2.5l-3-2-2 1v-2l-3-2-2-4-3 10-.5-3.5q3.9-17.1 12.5-29.5l-.5 1.5.5 1.5 1.5-.5-1 2 2.5 2.5h2l2 1h2l3.5-1.5 4.5-6.5-1.5 2.5-10 20 1.5.5 5-3 16-4H394v-53.5l-3.5-.5-19 7-6 4 1-2 6.5-3.5-2-3.5-5-2.5 3-1-2.5-1.5-1.5.5 1-2-1.5-.5-7.5 4.5 3 2q.8 3.8-1.5 4.5l-2.5-.5-1-3.5q3 1 2-2l-11 6.5 4 2 3 6.5 3.5 1 7-5-1 2q-13.7 7.8-23.5 19.5l-3.5 4.5 2.5-3.5 1-2-4-6.5-3-1.5-1.5-2.5-3.5 2.5q19.6-24.4 52.5-35.5m-3.5 5-4 4 4 2q2 1 1-2h4l-3-1 2-1zm-17 8-2 2 1 2h1zm49 25-2 5 1 3-3-1 1-2q-1-3-2-1l-4-3-4 1v26l-1 1-7 1 3 2-2 1h2l1 2q-1 4 1 6h-4v-1q2 1 1-2l-5 1-1-1 1-2-5 1-5-3h-4q1-3-2-2l-1-3h-21l-9 2v1q2-1 1 3h3l-2 5 3-1v2q1 2 5 1l1 3v5h2v3q-2 1 1 3l-1 2 1 4-1 3h-2l-1-3h-1v45h2l-1-1 1-3 2 1q1-4 3-1l3-1q3-1 2 2h1v-18l-1 2-6-2 1-2v2q3 1 2-1v-2q-1-3-2-1l-1-1q3-2 1-3-1-4 2-3v-2l-1-3 2 1-1-1 2-3 1 1h-1v1h2v-24h1v65h34v-67h-32v-1h32v-2l4 1 4-1 1 2 2-1v2q2 1 1-2h2zm-61 44-1 6h1zm61 0-2 2q-1 2 2 1zm-1 4v4h1q1-5-1-4m1 7-1 6h1zm0 16-1 4h1zm-91 50v3h1q1-4-1-3m3 2q-3 1-2 5h-2q-1 2 2 1 1 3 3-1l-2-1 2-1zm-6 4-2 2 1 1 2-1zm89 28v3q3-1 0-3m-13 36v1h3zM113.5 151l7.5 5.5-2.5-1.5q-4.6-1.2-5-4m9 6 2 3zm-22 3 5.5 3.5-1.5-.5q-4-.5-4-3m26 0 11.5 10.5q13.2 13.8 21 33l6 23h-1q-.6-9.9-4.5-16.5l-1.5 3-3.5-1-.5 2 2 .5-1.5.5-1.5-.5 1 3.5q-2.7-1.1-2 1.5l-4.5 6.5q-1.3-2.2-2.5.5l1 2.5-3 .5 6 8-2-1-4.5-6.5q-7.1-6.9-18.5-9.5l1.5-.5 3 1-.5-1.5-1-2 4-3-2-1 1-2-1-2 .5-1.5-4.5-.5 4.5-.5 15.5 6-7-17.5q-8.1-12.9-19.5-22.5l-8.5-6.5 2.5 1.5 5 3 2-1 2 1 1.5-.5-.5 1.5 5.5-1.5q-2.2-1.2.5-2.5h2.5q-1.1 2.7 1.5 2l.5-2.5zm11.5 12-1 2v2l-1 2 1 2h2q1 2-1 1h-2q-1 3 2 2l-1 2 1 2h-2l2 3 1-3 4 1-2-2 5-3q-1-3-2-1h-3l3-1z"/><path fill="#050509" d="m326.5 177-2.5 3.5-5.5 8.5.5-1.5zm-264 2q2.3-.7 1.5 1.5l-2 1zm149 30-1 2q-10.1 3.9-15.5 12.5l-3.5 5.5.5-1.5q4-9.5 12.5-14.5zm-88 13 .5 64.5h-1l-.5-14.5-1 3-.5-2q-3.3 1.1-2-3h-2.5l-2-3-1 3-2.5-4q3 1.3 2-2.5h-1l-.5 1.5-1-3-1 14-.5-41.5h1l.5 10.5 1.5-2.5-1-3h3q.8 2.3-1.5 1.5v1l2 1 1.5-.5-1 3h2q-.7 2.6 2 1.5l.5-2 2.5 1 .5 4zm-.5 31-3 2 2 1h-3l-3 3q-3-1-2 2v4l3 1-1-1 3 1v-1h2q2-1 1 2h1zm91.5-29-2 3zm90 0 .5 3.5h-1zm-49 1 8 9zm-45 2-2.5 3.5q-9 9-9 27l4 14 9 11-6-5-5.5-9.5-1.5 2.5q2.3 1.3-.5 2.5l-3.5-2.5 1 2q-2.7 1.1-2 4.5-3.7-1.5-3 1.5l1 2-2-1-5-13-1-18 3-12 3.5-6.5-.5 1.5-2 7.5h4v-1.5h1q-.7 4.8 2.5 5.5l1.5-2.5v-2l.5-1.5.5 3 2.5 1 .5-2-2-.5 1.5-.5 1.5.5zM188 240l-2 4 1 4 2-4zm2 0v2q3 1-1 3l1 1 3-4zm-4 11v5l1-2zm7 19-2 2 2 1zm83.5-43q10.4 11.6 8.5 35.5-2 12.5-8.5 20.5l.5-1.5 2-5-.5-1.5 1.5.5 2-7.5-7 2.5.5 1.5-2.5-1-1.5-3q-2.6.8-1.5-2.5h-1l-3.5 7.5.5-1.5 4-12v-9l-2-8-4-7 2 1 2 4.5 9-3v-2q3.7 1.5 3-1.5zm7.5 28-1 6h1zm-118.5-27 .5 4.5h-1zm138 1 1 8 1.5-.5-.5 1.5 1.5.5-2 1 1.5 3.5 1-3 2 3q3.8-1 2.5 2h3.5l1.5.5 1.5-4.5.5 1.5-2 4v15l2 5h-1l-2.5-7.5-4.5 3.5-2.5 4.5-.5-3-3.5 1-.5-2.5-.5-1.5-1 14-.5-39.5zm-.5 9 1 3 1-2z"/><path fill="#050509" d="m197.5 230-.5 1.5-.5 1.5-.5-1.5zm-31 4 .5 10.5h-1zm-16 7 1.5 4.5h-1zm17 5 .5 19.5h-1zm-15 1 .5 4.5h-1zm4 2 4.5 2q1 3-2 2 1.1-2.7-1.5-2zm-3 4 .5 3.5h-1zm13 16 .5 6.5h-1zm234 4 1.5 2.5h-1zm-97 4 .5 4.5h-1zm18 3 1.5.5-.5 2.5-3.5-1.5zm-17 3 .5 3.5h-1zm-29 1-2 3zm-81 1 4.5 6 7 5.5-5.5-4.5-3.5-2.5zm78 3-4 5-4 3 3-4zm125 2 1.5 2.5-2-1zm-135 6-1 2-4 2 1-2zm-130 26-2 3zm-4 5-6 8q2.3-.7 1.5 1.5l-1 5.5q3-1 2 2h4v1.5l2-1-.5-1.5 1 1 10.5-9.5q-16.7 21.3-44.5 31.5v-1l17.5-8.5-3-1-1-4 1-2.5-6.5-3q-7.9 6.6-20 9v-1q26.8-8.2 43-27m16 3-2 3zm206 5 7.5 6.5-2.5-1.5zm-287 3q3.3-1.1 2.5 1.5l-1 3.5-2.5 1-1.5-3.5 1.5.5 2.5-1.5zm164 1 .5 4.5h-1zm0 6 .5 4.5h-1zm114 2 13.5 10.5-1.5-.5q-8.5-3.7-12-10m-265 9 3.5.5-3.5.5zm18 10 1.5.5-4.5 1.5v-1zm300 6 .5 9.5h-1zm-25 20-.5 1.5q1 3.8-2 2.5z"/></svg>